/* XPM */
static char * epg_help_xpm[] = {
"24 24 289 2",
"  	c None",
". 	c #1B361C",
"+ 	c #1B381D",
"@ 	c #1D3C1E",
"# 	c #1D3F1F",
"$ 	c #1E3F20",
"% 	c #1B391D",
"& 	c #204722",
"* 	c #2A622D",
"= 	c #2A612D",
"- 	c #285C2B",
"; 	c #19381A",
"> 	c #18311A",
", 	c #2B642E",
"' 	c #29602C",
") 	c #265829",
"! 	c #204622",
"~ 	c #234F25",
"{ 	c #2A602D",
"] 	c #2A5F2D",
"^ 	c #28602C",
"/ 	c #245B29",
"( 	c #2B632E",
"_ 	c #142916",
": 	c #2B5D2F",
"< 	c #989854",
"[ 	c #CABF6E",
"} 	c #B5B261",
"| 	c #436B34",
"1 	c #1F4722",
"2 	c #2B622E",
"3 	c #275F2C",
"4 	c #8F965E",
"5 	c #CCC366",
"6 	c #9C9438",
"7 	c #CCC469",
"8 	c #999D53",
"9 	c #225728",
"0 	c #275C2B",
"a 	c #214A23",
"b 	c #275A2A",
"c 	c #275E2C",
"d 	c #979653",
"e 	c #BBB256",
"f 	c #B3AB50",
"g 	c #CBC368",
"h 	c #A0A053",
"i 	c #2B622D",
"j 	c #386931",
"k 	c #1F4922",
"l 	c #214D23",
"m 	c #19361A",
"n 	c #275126",
"o 	c #3B632F",
"p 	c #BCB259",
"q 	c #D0C76A",
"r 	c #B7AC4E",
"s 	c #4F6C31",
"t 	c #28602D",
"u 	c #A3AE59",
"v 	c #517A3B",
"w 	c #7E974C",
"x 	c #467237",
"y 	c #1D4F24",
"z 	c #235025",
"A 	c #1B371C",
"B 	c #1B301A",
"C 	c #779649",
"D 	c #32642E",
"E 	c #31592A",
"F 	c #4B5823",
"G 	c #2A471F",
"H 	c #2E5B2C",
"I 	c #3E6733",
"J 	c #607F3F",
"K 	c #597C3C",
"L 	c #738F46",
"M 	c #769348",
"N 	c #718F47",
"O 	c #3B6C33",
"P 	c #255728",
"Q 	c #1F4120",
"R 	c #253A1E",
"S 	c #39512A",
"T 	c #3A3C2D",
"U 	c #262724",
"V 	c #272725",
"W 	c #282725",
"X 	c #282825",
"Y 	c #292825",
"Z 	c #282925",
"` 	c #36382B",
" .	c #595B37",
"..	c #5A6D38",
"+.	c #285929",
"@.	c #306630",
"#.	c #1F4522",
"$.	c #19191A",
"%.	c #252325",
"&.	c #232324",
"*.	c #242424",
"=.	c #232323",
"-.	c #222223",
";.	c #1F1F22",
">.	c #232322",
",.	c #494331",
"'.	c #4D4F3A",
").	c #1B441D",
"!.	c #205425",
"~.	c #255628",
"{.	c #255527",
"].	c #255627",
"^.	c #1C3D1D",
"/.	c #272727",
"(.	c #2B2929",
"_.	c #2C2929",
":.	c #2F2D2C",
"<.	c #322F2E",
"[.	c #2B2A29",
"}.	c #3D3838",
"|.	c #383534",
"1.	c #2E2A2A",
"2.	c #443B3B",
"3.	c #50413F",
"4.	c #705957",
"5.	c #976F6D",
"6.	c #CDAAA9",
"7.	c #BE9192",
"8.	c #6C534E",
"9.	c #2E3F27",
"0.	c #294C27",
"a.	c #224A23",
"b.	c #1F4821",
"c.	c #C09B9A",
"d.	c #AE8585",
"e.	c #CFB9AE",
"f.	c #F6E0D5",
"g.	c #D7C6BD",
"h.	c #A68585",
"i.	c #AE8A87",
"j.	c #E1C9BF",
"k.	c #997C79",
"l.	c #CBA5A4",
"m.	c #C7A2A1",
"n.	c #C8A4A3",
"o.	c #C9A5A4",
"p.	c #C8A5A4",
"q.	c #CBA7A6",
"r.	c #957676",
"s.	c #BF9B9A",
"t.	c #B1938F",
"u.	c #CFAAA9",
"v.	c #8E716D",
"w.	c #FFF7EB",
"x.	c #FFF1E7",
"y.	c #FFEEE4",
"z.	c #D0BFB7",
"A.	c #A58A89",
"B.	c #A8948F",
"C.	c #E0CDC4",
"D.	c #8C7371",
"E.	c #8B7574",
"F.	c #B29190",
"G.	c #BE9C9B",
"H.	c #AF908F",
"I.	c #D2ACAB",
"J.	c #886867",
"K.	c #CAA5A4",
"L.	c #BD9B9A",
"M.	c #85746E",
"N.	c #897A77",
"O.	c #948F88",
"P.	c #FDEAE0",
"Q.	c #FFECE2",
"R.	c #A08C89",
"S.	c #867270",
"T.	c #06725B",
"U.	c #12886D",
"V.	c #508D7D",
"W.	c #9C8780",
"X.	c #886D6C",
"Y.	c #806969",
"Z.	c #836362",
"`.	c #A58887",
" +	c #BF9D9C",
".+	c #80716C",
"++	c #D3C2BA",
"@+	c #2D8B76",
"#+	c #F7E6DC",
"$+	c #FEE6DD",
"%+	c #055F4C",
"&+	c #17866D",
"*+	c #428675",
"=+	c #FEE8DE",
"-+	c #C09D9C",
";+	c #CDA9A8",
">+	c #816160",
",+	c #C9A4A3",
"'+	c #957A79",
")+	c #9B807F",
"!+	c #734E4D",
"~+	c #E0CAC2",
"{+	c #1A7E69",
"]+	c #F5E6DB",
"^+	c #FFF3E9",
"/+	c #548578",
"(+	c #37AC95",
"_+	c #70A395",
":+	c #FAE8DE",
"<+	c #C09F9E",
"[+	c #CCA8A7",
"}+	c #7F5E5D",
"|+	c #CDA7A6",
"1+	c #604F4F",
"2+	c #7A6564",
"3+	c #AA7A78",
"4+	c #DEC4BE",
"5+	c #6B8981",
"6+	c #F9E8DE",
"7+	c #EEDDD5",
"8+	c #7D9990",
"9+	c #ECC8C9",
"0+	c #F4C8CE",
"a+	c #C1A09E",
"b+	c #CAA6A5",
"c+	c #775251",
"d+	c #CCA6A5",
"e+	c #AF8887",
"f+	c #EAD0CD",
"g+	c #FFEDE3",
"h+	c #FFF0E6",
"i+	c #FFF0E5",
"j+	c #FEEBE1",
"k+	c #FFEEE6",
"l+	c #F9DBD1",
"m+	c #C5A3A2",
"n+	c #6F5555",
"o+	c #9B6866",
"p+	c #B48785",
"q+	c #A18584",
"r+	c #574847",
"s+	c #665555",
"t+	c #967B77",
"u+	c #D6C3BB",
"v+	c #F1E0D7",
"w+	c #D0C1B8",
"x+	c #C6B7AE",
"y+	c #F3DFD6",
"z+	c #E1CDC3",
"A+	c #D7BDB3",
"B+	c #AF8D85",
"C+	c #7D5553",
"D+	c #836261",
"E+	c #976462",
"F+	c #A16C6A",
"G+	c #895C5A",
"H+	c #825655",
"I+	c #553B39",
"J+	c #201818",
"K+	c #382D2C",
"L+	c #845D5C",
"M+	c #6B4745",
"N+	c #5C403D",
"O+	c #453D38",
"P+	c #E1C5B6",
"Q+	c #AD9E94",
"R+	c #443931",
"S+	c #8D645C",
"T+	c #714D4B",
"U+	c #986664",
"V+	c #9C6A68",
"W+	c #453231",
"X+	c #261F1F",
"Y+	c #2C2F25",
"Z+	c #35432E",
"`+	c #898B8A",
" @	c #9B9EA6",
".@	c #A6AAA7",
"+@	c #3A4E36",
"@@	c #3A4D36",
"#@	c #343C2D",
"$@	c #3B4B36",
"%@	c #3A4B35",
"&@	c #655D64",
"*@	c #665269",
"=@	c #3D4A38",
"-@	c #3E5139",
";@	c #42563D",
">@	c #45593F",
"            . + @ # $ # %                       ",
"    & * = = = = = = = = = = - ;                 ",
"  > , = = = = = = = = = = = = ' ) !             ",
"  ~ * = = = = = = = = = = = = = = * {           ",
"  ] = = = ^ / ^ = = = = = = = = = = = ( _       ",
"  - = = : < [ } | * = = = = = = = = = = )       ",
"  1 2 3 4 5 6 7 8 9 0 - = = = = = = = = 2 a     ",
"    b c d e f g h i j c k l ( = = = = = = {     ",
"    m n o p q r s t u v w x y z = = = = = = A   ",
"    B C D E F G H I J K L M N O P * = = = = Q   ",
"    R S T U V W X Y Z `  ...+.@.= = = = = = #.  ",
"    $.%.&.*.*.*.=.=.*.-.;.>.,.'.).!.~.{.].~.^.  ",
"    /.(._.:.<.[.}.|.1.2.3.4.5.6.7.8.9.0.a.b.    ",
"      c.d.e.f.g.h.i.j.k.l.m.n.o.p.q.r.s.t.      ",
"      u.v.w.x.y.z.A.B.C.D.E.F.G.H.I.J.K.L.      ",
"      u.M.N.O.P.Q.P.R.S.T.U.V.W.X.Y.Z.o.`.      ",
"       +.+++@+#+Q.Q.y.$+%+&+*+=+-+;+>+,+'+      ",
"      )+!+~+{+]+Q.Q.Q.^+/+(+_+:+<+[+}+|+1+      ",
"      2+3+4+5+6+Q.Q.Q.Q.7+8+9+0+a+b+c+d+        ",
"        e+f+g+Q.g+h+i+j+Q.y.k+l+m+n+o+p+q+r+    ",
"        s+t+u+v+:+w+x+y+z+A+B+C+D+E+F+G+H+I+    ",
"          J+K+L+M+N+O+P+Q+R+S+T+U+V+W+X+        ",
"                Y+Z+`+ @.@+@@@#@                ",
"                $@%@&@*@=@-@;@>@                "};
