/* XPM */
static char * epg_help_xpm[] = {
"21 24 230 2",
"  	c None",
". 	c #1E4121",
"+ 	c #214824",
"@ 	c #224C24",
"# 	c #234D25",
"$ 	c #244E26",
"% 	c #234E26",
"& 	c #224A24",
"* 	c #295D2C",
"= 	c #2B632E",
"- 	c #2A622D",
"; 	c #29602D",
"> 	c #214B23",
", 	c #1B3A1D",
"' 	c #224B24",
") 	c #2A612D",
"! 	c #28602C",
"~ 	c #275E2C",
"{ 	c #245126",
"] 	c #234E25",
"^ 	c #2D632F",
"/ 	c #446D38",
"( 	c #56783E",
"_ 	c #3D6B34",
": 	c #2B612D",
"< 	c #265528",
"[ 	c #28622D",
"} 	c #48723B",
"| 	c #A7A55B",
"1 	c #D0C268",
"2 	c #939D53",
"3 	c #35642F",
"4 	c #255B2A",
"5 	c #275D2B",
"6 	c #295F2C",
"7 	c #205427",
"8 	c #59783E",
"9 	c #C5B75E",
"0 	c #BEB455",
"a 	c #AEAB58",
"b 	c #476D35",
"c 	c #396630",
"d 	c #2F5F2D",
"e 	c #255929",
"f 	c #265929",
"g 	c #275A2A",
"h 	c #284C25",
"i 	c #57793C",
"j 	c #869449",
"k 	c #989845",
"l 	c #647837",
"m 	c #406D33",
"n 	c #608741",
"o 	c #658943",
"p 	c #477036",
"q 	c #3A6630",
"r 	c #285B2A",
"s 	c #2A602D",
"t 	c #245026",
"u 	c #42582D",
"v 	c #4E6736",
"w 	c #3E4D2E",
"x 	c #4F5231",
"y 	c #39462B",
"z 	c #3C4C2E",
"A 	c #4A5934",
"B 	c #586A3A",
"C 	c #5C793C",
"D 	c #477436",
"E 	c #2C612C",
"F 	c #2A622E",
"G 	c #255327",
"H 	c #23271F",
"I 	c #292E25",
"J 	c #232321",
"K 	c #222222",
"L 	c #272624",
"M 	c #272623",
"N 	c #242522",
"O 	c #222721",
"P 	c #283223",
"Q 	c #454E32",
"R 	c #3A5331",
"S 	c #1A4E1F",
"T 	c #205725",
"U 	c #235827",
"V 	c #265A29",
"W 	c #214B24",
"X 	c #333031",
"Y 	c #3E3435",
"Z 	c #4B4240",
"` 	c #524A46",
" .	c #4E403F",
"..	c #534745",
"+.	c #503F3F",
"@.	c #695152",
"#.	c #7A5F60",
"$.	c #9B7A77",
"%.	c #AD918C",
"&.	c #8B796E",
"*.	c #595A47",
"=.	c #3B4F33",
"-.	c #224321",
";.	c #796565",
">.	c #B49492",
",.	c #CBB4AC",
"'.	c #F1E0D6",
").	c #B8A39E",
"!.	c #9D7F7D",
"~.	c #C9B4AC",
"{.	c #B69A97",
"].	c #BA9393",
"^.	c #CBA3A3",
"/.	c #C19E9D",
"(.	c #C6A1A0",
"_.	c #A78785",
":.	c #B29591",
"<.	c #8B7872",
"[.	c #8C7272",
"}.	c #C2A39F",
"|.	c #B2A39B",
"1.	c #E0CEC6",
"2.	c #FFEBE1",
"3.	c #D3BEB7",
"4.	c #937F7B",
"5.	c #757E76",
"6.	c #407769",
"7.	c #828B84",
"8.	c #A28482",
"9.	c #947877",
"0.	c #AB8988",
"a.	c #BF9D9C",
"b.	c #9B7F7F",
"c.	c #C7A8A5",
"d.	c #9CADA0",
"e.	c #8CA699",
"f.	c #F0DFD5",
"g.	c #FFECE2",
"h.	c #FFE9DF",
"i.	c #78988A",
"j.	c #1A866D",
"k.	c #669788",
"l.	c #CAAFAB",
"m.	c #C09C9B",
"n.	c #A98685",
"o.	c #BA9998",
"p.	c #AD8D8B",
"q.	c #90988E",
"r.	c #93AFA2",
"s.	c #ECDED4",
"t.	c #FFEDE3",
"u.	c #FFEFE5",
"v.	c #BEC0B6",
"w.	c #49B5A0",
"x.	c #95B1A5",
"y.	c #D0B9B3",
"z.	c #C29D9C",
"A.	c #A78281",
"B.	c #B79594",
"C.	c #9A7A7A",
"D.	c #BEA29F",
"E.	c #EADAD2",
"F.	c #FBE9DF",
"G.	c #FEEBE1",
"H.	c #FFEEE4",
"I.	c #D5C9C0",
"J.	c #FBD7D8",
"K.	c #C8A9A8",
"L.	c #B18E8D",
"M.	c #9B7573",
"N.	c #B08C8B",
"O.	c #75605E",
"P.	c #B29D97",
"Q.	c #F0DED5",
"R.	c #F3DFD6",
"S.	c #D5C4BB",
"T.	c #DECDC4",
"U.	c #F7E4DA",
"V.	c #F2DCD1",
"W.	c #C8AEA4",
"X.	c #93736F",
"Y.	c #936968",
"Z.	c #8C5E5C",
"`.	c #9B6C6B",
" +	c #7B5B5A",
".+	c #3E2D2D",
"++	c #66504E",
"@+	c #937873",
"#+	c #857269",
"$+	c #A99991",
"%+	c #BEADA5",
"&+	c #4C4439",
"*+	c #7A574F",
"=+	c #6C4A48",
"-+	c #976563",
";+	c #6D4C4B",
">+	c #323127",
",+	c #243420",
"'+	c #605E68",
")+	c #AAACAC",
"!+	c #40553D",
"~+	c #384F37",
"{+	c #30392B",
"]+	c #3A4D36",
"^+	c #3B4D35",
"/+	c #363041",
"(+	c #7D7E79",
"_+	c #666A5E",
":+	c #5C6D58",
"<+	c #3D5038",
"[+	c #364632",
"}+	c #384933",
"|+	c #293A29",
"1+	c #A59994",
"2+	c #AF999B",
"3+	c #818A7E",
"4+	c #354530",
"5+	c #3C4E38",
"6+	c #495843",
"7+	c #68705A",
"8+	c #6D6B5F",
"9+	c #747166",
"0+	c #5A6954",
"a+	c #364531",
"b+	c #384C35",
"c+	c #646557",
"d+	c #A2968E",
"e+	c #45573F",
"f+	c #374D34",
"g+	c #3D5139",
"                                          ",
"        . + @ # $ $ % &                   ",
"      * = - - - - - - - ; > ,             ",
"    ' = ) ! ~ ! ) ) ) ) ) = ) {           ",
"    ] - ^ / ( _ : ) ) ) ) ) ) ) <         ",
"    ' [ } | 1 2 3 4 5 ) - ) ) ) 6 {       ",
"      7 8 9 0 a b c d e f ) ) ) - g       ",
"      h i j k l m n o p q r s ) ) s t     ",
"      u v w x y z A B C D E - F - = G     ",
"      H I J K L M N O P Q R S T U V W     ",
"      X Y Z `  ...+.@.#.$.%.&.*.=.-.      ",
"      ;.>.,.'.).!.~.{.].^./.(._.:.<.      ",
"      [.}.|.1.2.3.4.5.6.7.8.9.0.a.b.      ",
"        c.d.e.f.g.h.i.j.k.l.m.n.o.        ",
"        p.q.r.s.t.u.v.w.x.y.z.A.B.        ",
"        C.D.E.F.G.G.H.I.J.K.L.M.N.        ",
"        O.P.Q.R.S.T.U.V.W.X.Y.Z.`. +      ",
"          .+++@+#+$+%+&+*+=+-+;+          ",
"              >+,+'+)+!+~+{+              ",
"              ]+^+/+(+_+:+<+              ",
"              [+}+|+1+2+3+4+              ",
"              5+6+7+8+9+0+a+              ",
"              b+c+d+e+f+g+                ",
"                                          "};
