/* XPM */
static char * epg_check_xpm[] = {
"24 24 2 1",
" 	c None",
".	c #870D0D",
"                        ",
"                        ",
"                        ",
"          ....          ",
"          ....          ",
"      ..  ....  ..      ",
"     ..............     ",
"     ..............     ",
"      .....  ......     ",
"      ...      ...      ",
"   ......      ......   ",
"   .....        .....   ",
"   .....        .....   ",
"   ......      ......   ",
"      ...      ...      ",
"      .....  ......     ",
"     ..............     ",
"     ..............     ",
"      ..  ....  ..      ",
"          ....          ",
"          ....          ",
"                        ",
"                        ",
"                        "};
